#!OML:ASF X:\für Bonn\!DataBase\2005_08_11_Bastian_Final\c3d\Bastian.ASF
:FULLY-SPECIFIED
:DEGREES
46
root -22.7831 17.3392 -24.6021 176.697 130.801 -547.943
lowerback 8.44476 -3.34186 -2.08643
upperback 5.05754 -4.48528 1.8233
thorax 0.828937 -2.28615 3.37878
lowerneck -4.14529 3.83202 -6.54811
upperneck -1.28311 5.43387 6.74859
head -0.077838 2.79498 3.37321
rclavicle 4.75095e-014 3.18055e-015
rhumerus -48.4732 12.0836 -87.9125
rradius 61.6651
rwrist 2.87332
rhand -14.6175 10.7993
rfingers 7.12502
rthumb 11.5337 -18.8633
lclavicle 4.75095e-014 3.18055e-015
lhumerus -28.5525 -10.776 89.8832
lradius 67.772
lwrist 193.764
lhand -26.1948 10.5787
lfingers 7.12502
lthumb 0.357556 40.5582
rfemur -47.8717 3.34912 21.5453
rtibia 58.4381
rfoot -24.9532 -1.0507
rtoes -17.6754
lfemur 19.2876 3.53953 -15.5224
ltibia 3.81667e-014
lfoot -18.2209 -0.311342
ltoes -19.6418
47
root -22.6883 17.3052 -24.5043 176.763 130.568 -547.857
lowerback 8.51418 -3.4161 -2.09437
upperback 5.12009 -4.58292 1.80916
thorax 0.862826 -2.33545 3.37723
lowerneck -4.00365 3.92691 -6.49504
upperneck -1.49086 5.55934 6.6466
head -0.173605 2.85517 3.32072
rclavicle 3.91606e-014 6.36111e-015
rhumerus -48.8246 11.8693 -87.5413
rradius 60.3359
rwrist 2.86153
rhand -14.524 10.7747
rfingers 7.12502
rthumb 11.6238 -18.8829
lclavicle 3.91606e-014 6.36111e-015
lhumerus -28.2979 -11.4563 90.3149
lradius 69.5669
lwrist 194.495
lhand -26.7576 10.961
lfingers 7.12502
lthumb -0.185968 40.9407
rfemur -48.1356 3.36151 21.1716
rtibia 57.9112
rfoot -25.0215 -0.843273
rtoes -17.9323
lfemur 19.7363 3.38545 -15.5013
ltibia 9.54166e-015
lfoot -18.3556 -0.365656
ltoes -19.4615
48
root -22.5923 17.2697 -24.4048 176.788 130.336 -547.812
lowerback 8.60391 -3.48172 -2.08835
upperback 5.18553 -4.66793 1.81905
thorax 0.888653 -2.3783 3.39331
lowerneck -3.89504 4.01544 -6.45043
upperneck -1.69063 5.6778 6.53005
head -0.259976 2.91245 3.26595
rclavicle 2.50469e-014 -4.77083e-015
rhumerus -49.2656 11.6811 -87.1343
rradius 59.1016
rwrist 2.86636
rhand -14.2604 10.6657
rfingers 7.12502
rthumb 11.878 -18.9774
lclavicle 2.50469e-014 -4.77083e-015
lhumerus -28.0085 -12.1631 90.7788
lradius 71.418
lwrist 195.274
lhand -27.2841 11.2809
lfingers 7.12502
lthumb -0.694514 41.2595
rfemur -48.3294 3.39141 20.8113
rtibia 57.3928
rfoot -25.1194 -0.636306
rtoes -18.0712
lfemur 20.2007 3.22886 -15.4481
ltibia -6.36111e-014
lfoot -18.4777 -0.387944
ltoes -19.5417
49
root -22.4958 17.233 -24.3039 176.849 130.021 -547.738
lowerback 8.69713 -3.56455 -2.07194
upperback 5.24836 -4.77492 1.8111
thorax 0.909052 -2.4314 3.38707
lowerneck -3.78334 4.08105 -6.40807
upperneck -1.91471 5.76637 6.4187
head -0.352432 2.95501 3.21315
rclavicle 9.14409e-014 -1.82882e-014
rhumerus -49.6619 11.479 -86.7332
rradius 57.812
rwrist 2.99355
rhand -13.9474 10.4819
rfingers 7.12502
rthumb 12.1798 -19.1435
lclavicle 9.14409e-014 -1.82882e-014
lhumerus -27.6851 -12.941 91.1969
lradius 73.3793
lwrist 196.111
lhand -27.8066 11.4673
lfingers 7.12502
lthumb -1.19909 41.4437
rfemur -48.4824 3.35296 20.3937
rtibia 56.8917
rfoot -25.2584 -0.36783
rtoes -17.7921
lfemur 20.6235 2.99244 -15.4277
ltibia -5.08889e-014
lfoot -18.4664 -0.369465
ltoes -19.6403
50
root -22.3973 17.1968 -24.1971 176.904 129.589 -547.678
lowerback 8.7749 -3.67209 -2.05474
upperback 5.29778 -4.91458 1.80102
thorax 0.926127 -2.50064 3.37998
lowerneck -3.72017 4.13914 -6.34174
upperneck -2.06844 5.8438 6.32313
head -0.412678 2.99259 3.16374
rclavicle 5.18828e-014 -2.50469e-014
rhumerus -50.1672 11.2605 -86.3916
rradius 56.6409
rwrist 3.11832
rhand -13.5759 10.1186
rfingers 7.12502
rthumb 12.538 -19.4853
lclavicle 5.18828e-014 -2.50469e-014
lhumerus -27.3898 -13.7745 91.5925
lradius 75.4289
lwrist 196.881
lhand -28.3212 11.5811
lfingers 7.12502
lthumb -1.69616 41.5541
rfemur -48.5736 3.22457 19.978
rtibia 56.4194
rfoot -25.4358 -0.159591
rtoes -17.4118
lfemur 21.0404 2.63726 -15.3954
ltibia -3.81667e-014
lfoot -18.3563 -0.299958
ltoes -19.8987
51
root -22.2969 17.1599 -24.0871 176.954 129.154 -547.622
lowerback 8.86589 -3.77257 -2.05124
upperback 5.3525 -5.04555 1.81037
thorax 0.943928 -2.56617 3.40089
lowerneck -3.69966 4.18579 -6.31156
upperneck -2.22149 5.9097 6.24136
head -0.46594 3.02548 3.12718
rclavicle -3.10104e-014 -5.56597e-015
rhumerus -50.6773 11.0919 -86.0666
rradius 55.5274
rwrist 3.19346
rhand -13.248 9.66278
rfingers 7.12502
rthumb 12.8541 -19.9214
lclavicle -3.10104e-014 -5.56597e-015
lhumerus -27.0495 -14.6117 91.9923
lradius 77.4776
lwrist 197.583
lhand -28.7578 11.5945
lfingers 7.12502
lthumb -2.11783 41.5637
rfemur -48.6075 3.08962 19.5769
rtibia 55.9688
rfoot -25.6258 0.0212419
rtoes -16.9783
lfemur 21.4707 2.27593 -15.3518
ltibia -1.90833e-014
lfoot -18.1919 -0.24905
ltoes -20.0516
